<svg width="30" height="30" viewBox="0 0 30 30" fill="none" xmlns="http://www.w3.org/2000/svg">
<path d="M9.75 12.9666L8.85 11.5835C8.64561 11.7604 8.48383 11.9945 8.38 12.2637C8.27616 12.5329 8.23373 12.8282 8.25672 13.1216C8.27971 13.415 8.36736 13.6967 8.51136 13.9401C8.65536 14.1835 8.85092 14.3805 9.0795 14.5123L9.75 12.9666ZM15.75 16.4244L17.235 16.6682C17.2792 16.3091 17.2243 15.9432 17.0782 15.622C16.932 15.3009 16.7019 15.0409 16.4205 14.8788L15.75 16.4244ZM13.515 22.2317C13.4863 22.457 13.4965 22.6866 13.545 22.9073C13.5934 23.128 13.6793 23.3355 13.7975 23.5179C13.9157 23.7002 14.0641 23.8539 14.234 23.97C14.4039 24.0862 14.592 24.1625 14.7876 24.1946C14.9831 24.2267 15.1823 24.2139 15.3735 24.1571C15.5648 24.1003 15.7445 24.0004 15.9022 23.8634C16.0599 23.7263 16.1926 23.5547 16.2926 23.3583C16.3926 23.162 16.458 22.9448 16.485 22.7193L13.515 22.2317ZM15.75 7.77998L16.8105 6.55766C16.5552 6.26341 16.2164 6.08515 15.8563 6.05561C15.4962 6.02608 15.1389 6.14725 14.85 6.39687L15.75 7.77998ZM19.5 12.1022L18.4395 13.3245C18.7207 13.6488 19.1022 13.831 19.5 13.8311V12.1022ZM22.5 13.8311C22.8978 13.8311 23.2794 13.6489 23.5607 13.3247C23.842 13.0005 24 12.5607 24 12.1022C24 11.6437 23.842 11.2039 23.5607 10.8797C23.2794 10.5555 22.8978 10.3733 22.5 10.3733V13.8311ZM9 22.4755C9 23.3926 8.68393 24.2721 8.12132 24.9205C7.55871 25.569 6.79565 25.9333 6 25.9333V29.391C7.5913 29.391 9.11742 28.6624 10.2426 27.3655C11.3679 26.0686 12 24.3096 12 22.4755H9ZM6 25.9333C5.20435 25.9333 4.44129 25.569 3.87868 24.9205C3.31607 24.2721 3 23.3926 3 22.4755H0C0 24.3096 0.632141 26.0686 1.75736 27.3655C2.88258 28.6624 4.4087 29.391 6 29.391V25.9333ZM3 22.4755C3 21.5584 3.31607 20.6789 3.87868 20.0305C4.44129 19.382 5.20435 19.0177 6 19.0177V15.56C4.4087 15.56 2.88258 16.2886 1.75736 17.5855C0.632141 18.8824 0 20.6414 0 22.4755H3ZM6 19.0177C6.79565 19.0177 7.55871 19.382 8.12132 20.0305C8.68393 20.6789 9 21.5584 9 22.4755H12C12 20.6414 11.3679 18.8824 10.2426 17.5855C9.11742 16.2886 7.5913 15.56 6 15.56V19.0177ZM9.0795 14.5123L15.0795 17.97L16.4205 14.8788L10.4205 11.421L9.0795 14.5123ZM14.265 16.1806L13.515 22.2317L16.485 22.7193L17.235 16.6682L14.265 16.1806ZM10.65 14.3497L16.65 9.16309L14.85 6.39687L8.85 11.5835L10.65 14.3497ZM14.6895 9.0023L18.4395 13.3245L20.5605 10.8799L16.8105 6.55766L14.6895 9.0023ZM19.5 13.8311H22.5V10.3733H19.5V13.8311ZM27 22.4755C27 23.3926 26.6839 24.2721 26.1213 24.9205C25.5587 25.569 24.7956 25.9333 24 25.9333V29.391C25.5913 29.391 27.1174 28.6624 28.2426 27.3655C29.3679 26.0686 30 24.3096 30 22.4755H27ZM24 25.9333C23.2044 25.9333 22.4413 25.569 21.8787 24.9205C21.3161 24.2721 21 23.3926 21 22.4755H18C18 24.3096 18.6321 26.0686 19.7574 27.3655C20.8826 28.6624 22.4087 29.391 24 29.391V25.9333ZM21 22.4755C21 21.5584 21.3161 20.6789 21.8787 20.0305C22.4413 19.382 23.2044 19.0177 24 19.0177V15.56C22.4087 15.56 20.8826 16.2886 19.7574 17.5855C18.6321 18.8824 18 20.6414 18 22.4755H21ZM24 19.0177C24.7956 19.0177 25.5587 19.382 26.1213 20.0305C26.6839 20.6789 27 21.5584 27 22.4755H30C30 20.6414 29.3679 18.8824 28.2426 17.5855C27.1174 16.2886 25.5913 15.56 24 15.56V19.0177ZM19.5 3.45777V6.91554C20.2956 6.91554 21.0587 6.55124 21.6213 5.90278C22.1839 5.25432 22.5 4.37483 22.5 3.45777H19.5ZM19.5 3.45777H16.5C16.5 4.37483 16.8161 5.25432 17.3787 5.90278C17.9413 6.55124 18.7044 6.91554 19.5 6.91554V3.45777ZM19.5 3.45777V0C18.7044 0 17.9413 0.364299 17.3787 1.01276C16.8161 1.66121 16.5 2.54071 16.5 3.45777H19.5ZM19.5 3.45777H22.5C22.5 2.54071 22.1839 1.66121 21.6213 1.01276C21.0587 0.364299 20.2956 0 19.5 0V3.45777Z" fill="#0983FE"/>
</svg>
