<svg width="27" height="30" viewBox="0 0 27 30" fill="none" xmlns="http://www.w3.org/2000/svg">
<g clip-path="url(#clip0_88_347)">
<path d="M26.6259 8.82496C26.6257 8.32183 26.5181 7.87725 26.3005 7.49568C26.0868 7.12048 25.7666 6.806 25.3373 6.55735C21.793 4.5137 18.2453 2.47631 14.7022 0.43058C13.747 -0.120879 12.8208 -0.100775 11.8727 0.4586C10.462 1.29058 3.39894 5.33714 1.29425 6.5562C0.427484 7.05798 0.00571289 7.82589 0.00550456 8.82402C0.00415039 12.9339 0.00550456 17.0437 0.00415039 21.1537C0.00435872 21.6458 0.10738 22.0817 0.3154 22.4576C0.529255 22.8441 0.853838 23.1672 1.29311 23.4215C3.3979 24.6406 10.4619 28.6868 11.8723 29.519C12.8208 30.0787 13.747 30.0987 14.7025 29.547C18.2457 27.5012 21.7936 25.4639 25.3384 23.4203C25.7777 23.1661 26.1023 22.8428 26.3161 22.4565C26.5238 22.0807 26.6271 21.6447 26.6273 21.1526C26.6273 21.1526 26.6273 12.935 26.6259 8.82496" fill="#5C8DBC"/>
<path d="M13.3565 14.9489L0.31543 22.4576C0.529284 22.8442 0.853867 23.1673 1.29314 23.4216C3.39793 24.6406 10.4619 28.6869 11.8723 29.5191C12.8208 30.0787 13.747 30.0987 14.7025 29.5471C18.2457 27.5012 21.7937 25.464 25.3385 23.4203C25.7777 23.1661 26.1023 22.8428 26.3162 22.4566L13.3565 14.9489" fill="#1A4674"/>
<path d="M9.49384 17.173C10.2527 18.4978 11.6793 19.3914 13.3157 19.3914C14.9623 19.3914 16.397 18.4865 17.152 17.1475L13.3564 14.9489L9.49384 17.173" fill="#1A4674"/>
<path d="M26.6259 8.825C26.6257 8.32187 26.5181 7.87729 26.3005 7.49573L13.3564 14.9489L26.3161 22.4566C26.5238 22.0807 26.6271 21.6448 26.6273 21.1526C26.6273 21.1526 26.6273 12.935 26.6259 8.825" fill="#1B598E"/>
<path d="M25.9133 15.4855H24.9006V16.4984H23.8877V15.4855H22.8751V14.4729H23.8877V13.4602H24.9006V14.4729H25.9133V15.4855ZM22.218 15.4855H21.2054V16.4984H20.1927V15.4855H19.18V14.4729H20.1927V13.4602H21.2054V14.4729H22.218V15.4855Z" fill="white"/>
<path d="M17.152 17.1475C16.397 18.4865 14.9623 19.3914 13.3158 19.3914C11.6793 19.3914 10.2527 18.4978 9.49388 17.173C9.11267 16.5083 8.91247 15.7552 8.91326 14.9889C8.91326 12.5575 10.8844 10.5865 13.3158 10.5865C14.9417 10.5865 16.3608 11.4689 17.1234 12.7801L20.9714 10.5643C19.4419 7.92408 16.5864 6.14783 13.3158 6.14783C8.43284 6.14783 4.47461 10.1062 4.47461 14.9889C4.47461 16.5907 4.90076 18.0929 5.64555 19.3887C7.17117 22.0428 10.0348 23.83 13.3158 23.83C16.6027 23.83 19.4709 22.0356 20.9943 19.3737L17.152 17.1475Z" fill="white"/>
</g>
<defs>
<clipPath id="clip0_88_347">
<rect width="26.675" height="30" fill="white"/>
</clipPath>
</defs>
</svg>
