<svg width="22" height="30" viewBox="0 0 22 30" fill="none" xmlns="http://www.w3.org/2000/svg">
<g clip-path="url(#clip0_88_249)">
<path d="M10.6245 29.9242L1.96674 27.5207L0.0373535 5.88086H21.2376L19.3062 27.5174L10.6245 29.9242V29.9242Z" fill="#264DE4"/>
<path d="M17.6528 26.1396L19.3032 7.65015H10.6375V28.0845L17.6528 26.1396V26.1396Z" fill="#2965F1"/>
<path d="M4.4604 15.6761L4.69824 18.3302H10.6375V15.6761H4.4604ZM3.98239 10.3043L4.22364 12.9584H10.6375V10.3043H3.98239V10.3043ZM10.6375 22.569L10.6259 22.5721L7.67006 21.774L7.48109 19.6573H4.81682L5.18862 23.8245L10.6253 25.3337L10.6375 25.3303V22.569Z" fill="#EBEBEB"/>
<path d="M5.02676 0H8.24117V1.34427H6.37103V2.68853H8.24133V4.03271H5.02676V0ZM8.88413 0H12.0986V1.16892H10.2284V1.40269H12.0986V4.09122H8.88422V2.86371H10.7544V2.62994H8.88405V0H8.88413ZM12.7416 0H15.9561V1.16892H14.0858V1.40269H15.9561V4.09122H12.7416V2.86371H14.6118V2.62994H12.7417V0H12.7416Z" fill="white"/>
<path d="M16.7976 15.6761L17.2767 10.3043H10.6283V12.9584H14.3681L14.1266 15.6761H10.6283V18.3302H13.8965L13.5884 21.7723L10.6283 22.5712V25.3324L16.0692 23.8245L16.1091 23.3761L16.7329 16.3888L16.7976 15.6761V15.6761Z" fill="white"/>
</g>
<defs>
<clipPath id="clip0_88_249">
<rect width="21.275" height="30" fill="white"/>
</clipPath>
</defs>
</svg>
