<svg width="50" height="50" viewBox="0 0 50 50" fill="none" xmlns="http://www.w3.org/2000/svg">
<path d="M41.6666 8.33325H8.33329C6.04163 8.33325 4.18746 10.2083 4.18746 12.4999L4.16663 37.4999C4.16663 39.7916 6.04163 41.6666 8.33329 41.6666H41.6666C43.9583 41.6666 45.8333 39.7916 45.8333 37.4999V12.4999C45.8333 10.2083 43.9583 8.33325 41.6666 8.33325ZM40.8333 17.1874L26.1041 26.3958C25.4375 26.8124 24.5625 26.8124 23.8958 26.3958L9.16663 17.1874C8.95772 17.0701 8.77479 16.9117 8.62889 16.7217C8.483 16.5317 8.37717 16.314 8.31782 16.0819C8.25848 15.8498 8.24684 15.6081 8.28362 15.3714C8.3204 15.1347 8.40483 14.9079 8.5318 14.7047C8.65877 14.5016 8.82563 14.3263 9.02231 14.1895C9.21898 14.0527 9.44136 13.9572 9.67599 13.9089C9.91062 13.8605 10.1526 13.8603 10.3874 13.9081C10.6221 13.956 10.8447 14.051 11.0416 14.1874L25 22.9166L38.9583 14.1874C39.1552 14.051 39.3778 13.956 39.6126 13.9081C39.8473 13.8603 40.0893 13.8605 40.3239 13.9089C40.5586 13.9572 40.7809 14.0527 40.9776 14.1895C41.1743 14.3263 41.3412 14.5016 41.4681 14.7047C41.5951 14.9079 41.6795 15.1347 41.7163 15.3714C41.7531 15.6081 41.7414 15.8498 41.6821 16.0819C41.6227 16.314 41.5169 16.5317 41.371 16.7217C41.2251 16.9117 41.0422 17.0701 40.8333 17.1874Z" fill="#0983FE"/>
</svg>
