<svg width="30" height="30" viewBox="0 0 30 30" fill="none" xmlns="http://www.w3.org/2000/svg">
<path d="M15.6178 4.53659C14.2706 3.71628 12.5297 4.58722 12.3788 6.15753L12.15 8.52659H15.9375C16.2483 8.52659 16.5464 8.65006 16.7661 8.86983C16.9859 9.08959 17.1094 9.38767 17.1094 9.69847C17.1094 10.0093 16.9859 10.3073 16.7661 10.5271C16.5464 10.7469 16.2483 10.8703 15.9375 10.8703H11.925L10.5844 24.7735C10.26 28.1278 6.33 29.7685 3.71813 27.6385L3.24375 27.2513C3.00282 27.0549 2.84978 26.7708 2.81831 26.4615C2.78684 26.1522 2.87951 25.8431 3.07594 25.6022C3.27236 25.3613 3.55645 25.2083 3.86571 25.1768C4.17497 25.1453 4.48407 25.238 4.725 25.4344L5.19938 25.8216C6.36 26.7685 8.10656 26.0391 8.25094 24.5485L9.56906 10.8703H7.62188C7.31108 10.8703 7.013 10.7469 6.79323 10.5271C6.57347 10.3073 6.45 10.0093 6.45 9.69847C6.45 9.38767 6.57347 9.08959 6.79323 8.86983C7.013 8.65006 7.31108 8.52659 7.62188 8.52659H9.79688L10.0463 5.93253C10.3641 2.64097 14.0137 0.813779 16.8375 2.53409L17.7188 3.07128C17.8502 3.1513 17.9647 3.25644 18.0555 3.38069C18.1464 3.50494 18.2119 3.64587 18.2483 3.79543C18.2846 3.94499 18.2912 4.10025 18.2676 4.25236C18.244 4.40446 18.1907 4.55042 18.1106 4.6819C18.0306 4.81339 17.9255 4.92783 17.8012 5.01868C17.677 5.10953 17.536 5.17502 17.3865 5.21141C17.0844 5.2849 16.7655 5.23539 16.5 5.07378L15.6178 4.53659ZM25.9069 15.2157C26.1267 14.9959 26.2502 14.6977 26.2502 14.3869C26.2502 14.0761 26.1267 13.778 25.9069 13.5582C25.6871 13.3384 25.389 13.2149 25.0781 13.2149C24.7673 13.2149 24.4692 13.3384 24.2494 13.5582L20.1338 17.6757L18.8456 14.9597C18.6556 14.559 18.3791 14.2053 18.0361 13.9241C17.6931 13.6429 17.2921 13.4412 16.8619 13.3333C16.4317 13.2255 15.9829 13.2143 15.5479 13.3005C15.1128 13.3867 14.7022 13.5682 14.3456 13.8319L13.6003 14.3822C13.3561 14.569 13.1952 14.8443 13.1521 15.1488C13.109 15.4532 13.1873 15.7623 13.3701 16.0096C13.5529 16.2568 13.8255 16.4223 14.1292 16.4704C14.4328 16.5184 14.7432 16.4453 14.9934 16.2666L15.7388 15.7163C15.8172 15.6583 15.9074 15.6184 16.0031 15.5995C16.0987 15.5806 16.1974 15.5831 16.292 15.6068C16.3866 15.6306 16.4747 15.675 16.55 15.7369C16.6254 15.7988 16.6861 15.8766 16.7278 15.9647L18.375 19.4344L13.4691 24.3413C13.3602 24.4501 13.2739 24.5793 13.215 24.7215C13.1561 24.8637 13.1258 25.0161 13.1258 25.17C13.1258 25.3239 13.1561 25.4763 13.215 25.6185C13.2739 25.7607 13.3602 25.8899 13.4691 25.9988C13.6889 26.2186 13.987 26.3421 14.2978 26.3421C14.4517 26.3421 14.6041 26.3117 14.7463 26.2528C14.8885 26.1939 15.0177 26.1076 15.1266 25.9988L19.4409 21.6835L20.85 24.6553C21.0512 25.0797 21.349 25.4509 21.7196 25.7393C22.0902 26.0276 22.5232 26.2251 22.984 26.3158C23.4447 26.4065 23.9203 26.3879 24.3726 26.2616C24.8248 26.1352 25.2411 25.9046 25.5881 25.5882L25.8684 25.3332C25.9822 25.2295 26.0744 25.1044 26.1399 24.9651C26.2053 24.8258 26.2426 24.675 26.2498 24.5213C26.2569 24.3675 26.2337 24.2139 26.1815 24.0691C26.1292 23.9243 26.049 23.7913 25.9453 23.6775C25.8417 23.5638 25.7166 23.4715 25.5773 23.4061C25.438 23.3407 25.2872 23.3033 25.1334 23.2962C24.9797 23.2891 24.826 23.3123 24.6813 23.3645C24.5365 23.4167 24.4034 23.497 24.2897 23.6007L24.0094 23.8557C23.933 23.9249 23.8416 23.9753 23.7423 24.0029C23.643 24.0304 23.5386 24.0344 23.4375 24.0145C23.3364 23.9945 23.2413 23.9512 23.1599 23.888C23.0786 23.8248 23.0131 23.7434 22.9688 23.6503L21.2006 19.9228L25.9069 15.2147V15.2157Z" fill="#0983FE"/>
</svg>
