<svg width="30" height="30" viewBox="0 0 30 30" fill="none" xmlns="http://www.w3.org/2000/svg">
<g clip-path="url(#clip0_88_383)">
<path d="M29.4342 13.6638L16.3359 0.56624C15.5821 -0.188096 14.3586 -0.188096 13.6038 0.56624L10.8839 3.28616L14.3343 6.73651C15.1361 6.46558 16.0555 6.64733 16.6946 7.28647C17.3368 7.92972 17.5173 8.85702 17.2398 9.6614L20.565 12.9867C21.3695 12.7096 22.2977 12.8889 22.9403 13.5325C23.8383 14.4301 23.8383 15.885 22.9403 16.7832C22.042 17.6816 20.5871 17.6816 19.6884 16.7832C19.013 16.1071 18.8461 15.1151 19.188 14.2829L16.087 11.1819L16.0867 19.3425C16.3115 19.4536 16.5168 19.6005 16.6946 19.7773C17.5927 20.6749 17.5927 22.1299 16.6946 23.0289C15.7964 23.9267 14.3408 23.9267 13.4439 23.0289C12.5459 22.1299 12.5459 20.675 13.4439 19.7774C13.6591 19.5621 13.9148 19.3915 14.1963 19.2757V11.0391C13.9144 10.924 13.6585 10.7534 13.4439 10.5374C12.7635 9.85792 12.5999 8.8596 12.9485 8.02417L9.54727 4.62257L0.566016 13.6032C-0.188672 14.3583 -0.188672 15.5818 0.566016 16.3363L13.6645 29.4341C14.4186 30.1885 15.6418 30.1885 16.3969 29.4341L29.4341 16.3971C30.1886 15.6424 30.1886 14.4182 29.4341 13.6638" fill="#DE4C36"/>
</g>
<defs>
<clipPath id="clip0_88_383">
<rect width="30" height="30" fill="white"/>
</clipPath>
</defs>
</svg>
