<svg width="50" height="48" viewBox="0 0 50 48" fill="none" xmlns="http://www.w3.org/2000/svg">
<path fill-rule="evenodd" clip-rule="evenodd" d="M25 0C11.1875 0 0 11.0004 0 24.582C0 35.4595 7.15625 44.647 17.0938 47.9041C18.3438 48.1192 18.8125 47.3817 18.8125 46.7365C18.8125 46.1526 18.7812 44.2168 18.7812 42.1581C12.5 43.295 10.875 40.6524 10.375 39.2697C10.0938 38.563 8.875 36.3813 7.8125 35.7975C6.9375 35.3366 5.6875 34.1997 7.78125 34.1689C9.75 34.1382 11.1562 35.9511 11.625 36.6886C13.875 40.4066 17.4687 39.3619 18.9062 38.7166C19.125 37.1188 19.7812 36.0433 20.5 35.4288C14.9375 34.8142 9.125 32.694 9.125 23.2914C9.125 20.6181 10.0938 18.4057 11.6875 16.685C11.4375 16.0705 10.5625 13.5508 11.9375 10.1708C11.9375 10.1708 14.0312 9.52551 18.8125 12.6904C20.8125 12.1373 22.9375 11.8608 25.0625 11.8608C27.1875 11.8608 29.3125 12.1373 31.3125 12.6904C36.0938 9.49478 38.1875 10.1708 38.1875 10.1708C39.5625 13.5508 38.6875 16.0705 38.4375 16.685C40.0312 18.4057 41 20.5874 41 23.2914C41 32.7247 35.1562 34.8142 29.5937 35.4288C30.5 36.1969 31.2812 37.6719 31.2812 39.9764C31.2812 43.2643 31.25 45.9068 31.25 46.7365C31.25 47.3817 31.7188 48.1499 32.9688 47.9041C37.9316 46.2565 42.2441 43.1202 45.2993 38.9365C48.3545 34.7529 49.9985 29.7325 50 24.582C50 11.0004 38.8125 0 25 0Z" fill="#0983FE"/>
</svg>
