<svg width="30" height="30" viewBox="0 0 30 30" fill="none" xmlns="http://www.w3.org/2000/svg">
<path d="M17.925 15H16.5813M20.2169 15H18.8731M22.5094 15H21.1656M24.8013 15H23.4575M13.4188 15H12.075M11.1269 15H9.78313M8.83438 15H7.49063M6.5425 15H5.19875M15 9.78311V11.1269M15 12.075V13.4187M15 16.5812V17.925M15 18.8731V20.2169M15 21.1656V22.5094M15 23.4575V24.8012M15 7.49061V8.83436M15 5.19873V6.54248M6.46313 12.945C20.0588 -0.888144 15.9488 21.0075 23.6944 22.7462" stroke="#0983FE" stroke-linecap="round" stroke-linejoin="round"/>
<path d="M15 28.4375C22.4213 28.4375 28.4375 22.4213 28.4375 15C28.4375 7.57867 22.4213 1.5625 15 1.5625C7.57867 1.5625 1.5625 7.57867 1.5625 15C1.5625 22.4213 7.57867 28.4375 15 28.4375Z" stroke="#0983FE" stroke-linecap="round" stroke-linejoin="round"/>
<path d="M15 15.4688C15.2589 15.4688 15.4688 15.2589 15.4688 15C15.4688 14.7411 15.2589 14.5312 15 14.5312C14.7411 14.5312 14.5312 14.7411 14.5312 15C14.5312 15.2589 14.7411 15.4688 15 15.4688Z" fill="#0983FE"/>
</svg>
