<svg width="22" height="30" viewBox="0 0 22 30" fill="none" xmlns="http://www.w3.org/2000/svg">
<g clip-path="url(#clip0_88_243)">
<path d="M21.2376 5.88086L19.3062 27.5174L10.6245 29.9242L1.96674 27.5207L0.0373535 5.88086H21.2376Z" fill="#E44D26"/>
<path d="M10.6375 28.0845L17.6528 26.1396L19.3032 7.65015H10.6375V28.0845Z" fill="#F16529"/>
<path d="M6.88295 12.9584H10.6375V10.3043H3.98242L4.04591 11.0163L4.69827 18.3302H10.6375V15.6761H7.12552L6.88295 12.9584V12.9584ZM7.48112 19.6573H4.81685L5.18865 23.8245L10.6253 25.3337L10.6375 25.3303V22.569L10.6259 22.5721L7.6701 21.774L7.48112 19.6573Z" fill="#EBEBEB"/>
<path d="M2.00983 0H3.35858V1.33255H4.5924V0H5.94124V4.03529H4.59249V2.68404H3.35866V4.03529H2.00991V0H2.00983ZM7.71481 1.3382H6.52761V0H10.2518V1.3382H9.06382V4.03529H7.71506V1.3382H7.71498H7.71481ZM10.8428 0H12.2491L13.1142 1.41789L13.9785 0H15.3854V4.03529H14.0422V2.03518L13.1142 3.46994H13.091L12.1625 2.03518V4.03529H10.8428V0ZM16.0566 0H17.4058V2.7015H19.3025V4.03529H16.0566V0H16.0566Z" fill="white"/>
<path d="M10.6283 18.3302H13.8965L13.5884 21.7723L10.6283 22.5712V25.3324L16.0692 23.8245L16.1091 23.3761L16.7329 16.3888L16.7976 15.6761H10.6283V18.3302ZM10.6283 12.9519V12.9584H17.0391L17.0923 12.3619L17.2133 11.0163L17.2767 10.3043H10.6283V12.952V12.9519Z" fill="white"/>
</g>
<defs>
<clipPath id="clip0_88_243">
<rect width="21.275" height="30" fill="white"/>
</clipPath>
</defs>
</svg>
