<svg width="30" height="30" viewBox="0 0 30 30" fill="none" xmlns="http://www.w3.org/2000/svg">
<path d="M15 16.25C14.6458 16.25 14.3492 16.13 14.11 15.89C13.87 15.6508 13.75 15.3542 13.75 15V10C13.75 9.64583 13.87 9.34875 14.11 9.10875C14.3492 8.86958 14.6458 8.75 15 8.75C15.3542 8.75 15.6513 8.86958 15.8913 9.10875C16.1304 9.34875 16.25 9.64583 16.25 10V15C16.25 15.3542 16.1304 15.6508 15.8913 15.89C15.6513 16.13 15.3542 16.25 15 16.25ZM15 21.25C14.6458 21.25 14.3492 21.13 14.11 20.89C13.87 20.6508 13.75 20.3542 13.75 20C13.75 19.6458 13.87 19.3487 14.11 19.1087C14.3492 18.8696 14.6458 18.75 15 18.75C15.3542 18.75 15.6513 18.8696 15.8913 19.1087C16.1304 19.3487 16.25 19.6458 16.25 20C16.25 20.3542 16.1304 20.6508 15.8913 20.89C15.6513 21.13 15.3542 21.25 15 21.25ZM20.4062 24.0938C19.9688 24.3021 19.5833 24.2862 19.25 24.0462C18.9167 23.8071 18.75 23.4271 18.75 22.9062C18.75 22.6771 18.8179 22.4533 18.9538 22.235C19.0887 22.0158 19.2708 21.8542 19.5 21.75C20.7917 21.125 21.8229 20.1979 22.5938 18.9688C23.3646 17.7396 23.75 16.3958 23.75 14.9375C23.75 14 23.5729 13.0883 23.2188 12.2025C22.8646 11.3175 22.3125 10.5 21.5625 9.75L21.25 9.4375V11.25C21.25 11.6042 21.13 11.9008 20.89 12.14C20.6508 12.38 20.3542 12.5 20 12.5C19.6458 12.5 19.3492 12.38 19.11 12.14C18.87 11.9008 18.75 11.6042 18.75 11.25V6.25C18.75 5.89583 18.87 5.59875 19.11 5.35875C19.3492 5.11958 19.6458 5 20 5H25C25.3542 5 25.6508 5.11958 25.89 5.35875C26.13 5.59875 26.25 5.89583 26.25 6.25C26.25 6.60417 26.13 6.90125 25.89 7.14125C25.6508 7.38042 25.3542 7.5 25 7.5H22.8125L23.3125 7.9375C24.3333 8.95833 25.0783 10.0675 25.5475 11.265C26.0158 12.4633 26.25 13.6875 26.25 14.9375C26.25 16.9583 25.7188 18.7863 24.6562 20.4212C23.5938 22.0571 22.1771 23.2812 20.4062 24.0938ZM5 25C4.64583 25 4.34917 24.88 4.11 24.64C3.87 24.4008 3.75 24.1042 3.75 23.75C3.75 23.3958 3.87 23.0992 4.11 22.86C4.34917 22.62 4.64583 22.5 5 22.5H7.1875L6.6875 22.0625C5.66667 21.0417 4.92167 19.9325 4.4525 18.735C3.98417 17.5367 3.75 16.3125 3.75 15.0625C3.75 13.0417 4.28125 11.2133 5.34375 9.5775C6.40625 7.9425 7.82292 6.71875 9.59375 5.90625C10.0312 5.69792 10.4167 5.71333 10.75 5.9525C11.0833 6.1925 11.25 6.57292 11.25 7.09375C11.25 7.32292 11.1825 7.54667 11.0475 7.765C10.9117 7.98417 10.7292 8.14583 10.5 8.25C9.20833 8.875 8.17708 9.80208 7.40625 11.0312C6.63542 12.2604 6.25 13.6042 6.25 15.0625C6.25 16 6.42708 16.9113 6.78125 17.7963C7.13542 18.6821 7.6875 19.5 8.4375 20.25L8.75 20.5625V18.75C8.75 18.3958 8.86958 18.0987 9.10875 17.8587C9.34875 17.6196 9.64583 17.5 10 17.5C10.3542 17.5 10.6513 17.6196 10.8913 17.8587C11.1304 18.0987 11.25 18.3958 11.25 18.75V23.75C11.25 24.1042 11.1304 24.4008 10.8913 24.64C10.6513 24.88 10.3542 25 10 25H5Z" fill="#0983FE"/>
</svg>
