<svg width="23" height="30" viewBox="0 0 23 30" fill="none" xmlns="http://www.w3.org/2000/svg">
<g clip-path="url(#clip0_178_2)">
<path d="M7.15958 23.1913C7.15958 23.1913 6.01524 23.8567 7.974 24.0819C10.347 24.3526 11.5598 24.3138 14.1749 23.8188C14.1749 23.8188 14.8625 24.2499 15.8226 24.6234C9.96033 27.1358 2.55501 24.4778 7.15958 23.1913M6.44322 19.9126C6.44322 19.9126 5.15972 20.8627 7.11995 21.0654C9.65487 21.3269 11.6567 21.3483 15.1208 20.6813C15.1208 20.6813 15.5999 21.167 16.3533 21.4327C9.26539 23.5053 1.37079 21.5962 6.44322 19.9126" fill="#5382A1"/>
<path d="M12.4822 14.351C13.9268 16.014 12.1027 17.5105 12.1027 17.5105C12.1027 17.5105 15.7705 15.6171 14.086 13.2461C12.5129 11.0351 11.3063 9.93636 17.8376 6.14856C17.8376 6.14856 7.58574 8.70896 12.4822 14.3509" fill="#E76F00"/>
<path d="M20.2356 25.6164C20.2356 25.6164 21.0825 26.3141 19.3029 26.8539C15.9192 27.879 5.21925 28.1886 2.24682 26.8948C1.17835 26.43 3.18211 25.7849 3.81237 25.6495C4.46968 25.507 4.84537 25.5336 4.84537 25.5336C3.65708 24.6964 -2.83523 27.1772 1.54763 27.8876C13.5002 29.826 23.336 27.0148 20.2356 25.6164ZM7.70985 16.5156C7.70985 16.5156 2.26728 17.8084 5.78257 18.2777C7.26679 18.4765 10.2256 18.4316 12.9817 18.2006C15.2341 18.0107 17.4958 17.6066 17.4958 17.6066C17.4958 17.6066 16.7016 17.9468 16.127 18.3391C10.6001 19.7927 -0.0769675 19.1165 2.99682 17.6296C5.59633 16.3731 7.70994 16.5156 7.70994 16.5156M17.4734 21.973C23.0919 19.0535 20.4941 16.2479 18.6809 16.6259C18.2365 16.7183 18.0384 16.7985 18.0384 16.7985C18.0384 16.7985 18.2034 16.5401 18.5184 16.4282C22.1054 15.1671 24.8641 20.1476 17.3605 22.1202C17.3605 22.1203 17.4475 22.0426 17.4734 21.973Z" fill="#5382A1"/>
<path d="M14.0861 0.0321912C14.0861 0.0321912 17.1976 3.14491 11.1349 7.93112C6.27323 11.7706 10.0263 13.9597 11.1329 16.4609C8.29502 13.9005 6.21236 11.6465 7.60961 9.54878C9.66028 6.46927 15.3415 4.9763 14.0861 0.0321045" fill="#E76F00"/>
<path d="M8.26199 29.8842C13.655 30.2295 21.9364 29.6927 22.1326 27.1409C22.1326 27.1409 21.7556 28.1083 17.6756 28.8765C13.0726 29.7427 7.39546 29.6416 4.02826 29.0864C4.02835 29.0864 4.71757 29.657 8.26207 29.8842" fill="#5382A1"/>
</g>
<defs>
<clipPath id="clip0_178_2">
<rect width="22.2" height="30" fill="white"/>
</clipPath>
</defs>
</svg>
