<svg width="50" height="50" viewBox="0 0 50 50" fill="none" xmlns="http://www.w3.org/2000/svg">
<path fill-rule="evenodd" clip-rule="evenodd" d="M19.6437 18.6855H27.3812V22.5397C28.4958 20.323 31.3541 18.3313 35.6479 18.3313C43.8791 18.3313 45.8333 22.7438 45.8333 30.8397V45.8334H37.5V32.6834C37.5 28.073 36.3854 25.473 33.5479 25.473C29.6125 25.473 27.977 28.2751 27.977 32.6813V45.8334H19.6437V18.6855ZM5.35413 45.4792H13.6875V18.3313H5.35413V45.4792ZM14.8812 9.47925C14.8815 10.1777 14.743 10.8693 14.4737 11.5138C14.2044 12.1583 13.8097 12.7428 13.3125 13.2334C12.305 14.2347 10.9412 14.7952 9.52079 14.7917C8.10285 14.7908 6.74227 14.2317 5.73329 13.2355C5.2379 12.7432 4.84451 12.158 4.57568 11.5135C4.30684 10.8689 4.16783 10.1776 4.16663 9.47925C4.16663 8.06883 4.72913 6.71883 5.73538 5.723C6.74347 4.72541 8.10463 4.16612 9.52288 4.16675C10.9437 4.16675 12.3062 4.72717 13.3125 5.723C14.3166 6.71883 14.8812 8.06883 14.8812 9.47925Z" fill="#0983FE"/>
</svg>
