<svg width="30" height="30" viewBox="0 0 30 30" fill="none" xmlns="http://www.w3.org/2000/svg">
<path d="M8.93999 3.76501C9.97999 2.95501 11.34 2.50751 12.6912 2.50751C13.5 2.50751 14.1537 2.78501 14.65 3.22626C14.7837 3.34501 14.9025 3.47376 15.0087 3.60626C15.115 3.47376 15.2337 3.34501 15.3675 3.22626C15.8637 2.78501 16.5175 2.50751 17.3262 2.50751C18.6775 2.50751 20.0387 2.95501 21.0762 3.76501C21.8862 4.39376 22.52 5.26251 22.7687 6.31126C23.2937 6.39876 23.76 6.66626 24.1375 7.02001C24.7375 7.58376 25.1662 8.39876 25.435 9.23751C25.7087 10.0888 25.845 11.045 25.8037 11.9638C25.7825 12.4338 25.7137 12.9138 25.5825 13.3725L25.6637 13.41C26.1262 13.6275 26.5012 13.9688 26.7825 14.4225C27.3137 15.2788 27.5012 16.5113 27.5012 18.0825C27.5012 19.8888 26.81 21.115 25.9225 21.8763C25.4602 22.2727 24.9192 22.5667 24.335 22.7388C24.123 23.7156 23.6875 24.6299 23.0625 25.41C22.1587 26.54 20.7537 27.495 18.8662 27.495C17.3537 27.495 16.1625 26.6575 15.3975 25.8575C15.2618 25.7145 15.1325 25.5656 15.01 25.4113C14.887 25.5652 14.7573 25.7137 14.6212 25.8563C13.8562 26.6588 12.665 27.495 11.1525 27.495C9.26374 27.495 7.85874 26.54 6.95624 25.41C6.33034 24.6302 5.8939 23.7158 5.68124 22.7388C5.09749 22.5665 4.55687 22.2726 4.09499 21.8763C3.20749 21.1138 2.51749 19.8888 2.51749 18.0825C2.51749 16.5113 2.70499 15.2788 3.23499 14.4225C3.51618 13.9563 3.93561 13.5893 4.43499 13.3725C4.30656 12.9132 4.2323 12.4404 4.21374 11.9638C4.17249 11.045 4.30874 10.0888 4.58249 9.23751C4.85124 8.40001 5.27874 7.58376 5.87999 7.02001C6.25602 6.65348 6.73239 6.40681 7.24874 6.31126C7.49874 5.26126 8.13124 4.39376 8.93999 3.76501ZM10.0925 5.24376C9.40999 5.77501 9.00999 6.48251 9.00999 7.29751C9.00987 7.44598 8.9745 7.5923 8.90678 7.72442C8.83906 7.85655 8.74092 7.9707 8.62045 8.05748C8.49999 8.14426 8.36063 8.20119 8.21386 8.22357C8.06709 8.24596 7.9171 8.23317 7.77624 8.18626C7.60499 8.12876 7.42374 8.14251 7.16374 8.38751C6.87374 8.65876 6.57999 9.15001 6.36749 9.81001C6.15492 10.4786 6.06017 11.179 6.08749 11.88C6.11874 12.575 6.28374 13.1525 6.54374 13.5425C6.58676 13.6071 6.6216 13.6768 6.64749 13.75H7.99999C8.89994 13.7498 9.76662 14.0902 10.4259 14.7029C11.0851 15.3155 11.4881 16.155 11.5537 17.0525C12.0922 17.2674 12.5393 17.6627 12.8184 18.1708C13.0975 18.679 13.1914 19.2684 13.0839 19.8381C12.9764 20.4078 12.6742 20.9224 12.2291 21.2939C11.784 21.6654 11.2236 21.8706 10.6438 21.8744C10.0641 21.8783 9.501 21.6805 9.05099 21.315C8.60099 20.9494 8.29201 20.4389 8.17695 19.8706C8.0619 19.3024 8.14791 18.7118 8.42027 18.2C8.69263 17.6882 9.13441 17.287 9.66999 17.065C9.61062 16.6646 9.40929 16.2989 9.10272 16.0345C8.79616 15.7702 8.40478 15.6248 7.99999 15.625H4.71874C4.53124 16.06 4.39249 16.8113 4.39249 18.0825C4.39249 19.3588 4.85624 20.0588 5.31624 20.4538C5.81999 20.885 6.37374 20.9975 6.53374 20.9975C6.78238 20.9975 7.02083 21.0963 7.19665 21.2721C7.37246 21.4479 7.47124 21.6864 7.47124 21.935C7.47124 22.46 7.76124 23.4138 8.42124 24.2388C9.05624 25.035 9.96124 25.62 11.1525 25.62C11.9487 25.62 12.6812 25.1725 13.265 24.5625C13.5475 24.265 13.7675 23.9563 13.9125 23.7063C13.9674 23.6128 14.0154 23.5154 14.0562 23.415L14.0637 23.3975V11.5625H12.9437C12.7262 12.1003 12.3283 12.5458 11.8184 12.8224C11.3084 13.0991 10.7181 13.1898 10.1486 13.079C9.57914 12.9682 9.06593 12.6627 8.69694 12.215C8.32796 11.7673 8.12617 11.2052 8.12617 10.625C8.12617 10.0448 8.32796 9.48273 8.69694 9.03502C9.06593 8.5873 9.57914 8.28186 10.1486 8.17104C10.7181 8.06022 11.3084 8.15091 11.8184 8.42758C12.3283 8.70426 12.7262 9.14968 12.9437 9.68751H14.0637V6.51501L14.06 6.44376C14.0386 6.05878 13.9628 5.67876 13.835 5.31501C13.7225 5.01501 13.5762 4.78126 13.4037 4.62751C13.25 4.49001 13.0375 4.38251 12.6912 4.38251C11.7337 4.38251 10.785 4.70501 10.0912 5.24501L10.0925 5.24376ZM15.955 21.25V23.3975L15.9612 23.415C15.9862 23.4813 16.0337 23.58 16.1062 23.7063C16.25 23.9563 16.47 24.265 16.7537 24.5625C17.3362 25.1725 18.07 25.62 18.8662 25.62C20.0562 25.62 20.9612 25.035 21.5975 24.2388C22.2562 23.4138 22.5475 22.4588 22.5475 21.935C22.5475 21.6864 22.6463 21.4479 22.8221 21.2721C22.9979 21.0963 23.2363 20.9975 23.485 20.9975C23.645 20.9975 24.1975 20.885 24.7025 20.4538C25.1612 20.0588 25.625 19.3588 25.625 18.0825C25.625 16.5725 25.4275 15.795 25.1887 15.4113C25.114 15.2785 25.0007 15.1717 24.8637 15.105C24.7375 15.045 24.5475 15 24.2537 15C24.0841 15 23.9176 14.9539 23.772 14.8667C23.6264 14.7795 23.5073 14.6545 23.4272 14.5049C23.3472 14.3553 23.3092 14.1867 23.3174 14.0173C23.3256 13.8478 23.3796 13.6837 23.4737 13.5425C23.7337 13.1513 23.8987 12.575 23.9312 11.88C23.9581 11.1789 23.863 10.4785 23.65 9.81001C23.4375 9.15001 23.1437 8.66001 22.855 8.38751C22.5937 8.14251 22.4125 8.12876 22.2425 8.18626C22.1016 8.23342 21.9514 8.2464 21.8045 8.22412C21.6575 8.20185 21.518 8.14497 21.3974 8.05816C21.2768 7.97135 21.1785 7.85711 21.1107 7.72485C21.0429 7.5926 21.0075 7.44612 21.0075 7.29751C21.0075 6.48251 20.6075 5.77501 19.925 5.24376C19.2337 4.70501 18.2837 4.38126 17.325 4.38126C16.98 4.38126 16.7687 4.49001 16.6137 4.62626C16.418 4.81818 16.2707 5.0538 16.1837 5.31376C16.0436 5.69932 15.9663 6.10491 15.955 6.51501V19.375H16.75C17.1975 19.375 17.6268 19.1972 17.9432 18.8808C18.2597 18.5643 18.4375 18.1351 18.4375 17.6875V15.4438C17.8997 15.2262 17.4542 14.8283 17.1776 14.3184C16.9009 13.8084 16.8102 13.2181 16.921 12.6487C17.0318 12.0792 17.3373 11.566 17.785 11.197C18.2327 10.828 18.7948 10.6262 19.375 10.6262C19.9552 10.6262 20.5173 10.828 20.965 11.197C21.4127 11.566 21.7181 12.0792 21.829 12.6487C21.9398 13.2181 21.8491 13.8084 21.5724 14.3184C21.2957 14.8283 20.8503 15.2262 20.3125 15.4438V17.6875C20.3125 18.6323 19.9372 19.5385 19.2691 20.2066C18.601 20.8747 17.6948 21.25 16.75 21.25H15.955ZM10.625 10C10.4592 10 10.3003 10.0659 10.183 10.1831C10.0658 10.3003 9.99999 10.4592 9.99999 10.625C9.99999 10.7908 10.0658 10.9497 10.183 11.0669C10.3003 11.1842 10.4592 11.25 10.625 11.25C10.7907 11.25 10.9497 11.1842 11.0669 11.0669C11.1841 10.9497 11.25 10.7908 11.25 10.625C11.25 10.4592 11.1841 10.3003 11.0669 10.1831C10.9497 10.0659 10.7907 10 10.625 10ZM9.99999 19.375C9.99999 19.5408 10.0658 19.6997 10.183 19.8169C10.3003 19.9342 10.4592 20 10.625 20C10.7907 20 10.9497 19.9342 11.0669 19.8169C11.1841 19.6997 11.25 19.5408 11.25 19.375C11.25 19.2092 11.1841 19.0503 11.0669 18.9331C10.9497 18.8159 10.7907 18.75 10.625 18.75C10.4592 18.75 10.3003 18.8159 10.183 18.9331C10.0658 19.0503 9.99999 19.2092 9.99999 19.375ZM18.75 13.125C18.75 13.2908 18.8158 13.4497 18.933 13.5669C19.0503 13.6842 19.2092 13.75 19.375 13.75C19.5407 13.75 19.6997 13.6842 19.8169 13.5669C19.9341 13.4497 20 13.2908 20 13.125C20 12.9592 19.9341 12.8003 19.8169 12.6831C19.6997 12.5659 19.5407 12.5 19.375 12.5C19.2092 12.5 19.0503 12.5659 18.933 12.6831C18.8158 12.8003 18.75 12.9592 18.75 13.125Z" fill="#0983FE"/>
</svg>
