<svg width="27" height="30" viewBox="0 0 27 30" fill="none" xmlns="http://www.w3.org/2000/svg">
<g clip-path="url(#clip0_88_256)">
<path d="M13.2872 29.9443C12.8746 29.9443 12.4894 29.8343 12.1318 29.6417L8.47298 27.4684C7.9228 27.1658 8.19789 27.0558 8.36294 27.0008C9.10568 26.7532 9.24322 26.6982 10.0135 26.2579C10.0961 26.2029 10.2061 26.2304 10.2885 26.2854L13.0946 27.9636C13.2047 28.0186 13.3422 28.0186 13.4247 27.9636L24.4012 21.6089C24.5112 21.5539 24.5663 21.4438 24.5663 21.3063V8.62417C24.5663 8.48663 24.5112 8.37659 24.4012 8.32157L13.4247 1.99427C13.3147 1.93926 13.1772 1.93926 13.0946 1.99427L2.11817 8.32168C2.00813 8.3767 1.95311 8.51424 1.95311 8.62427V21.3063C1.95311 21.4163 2.00813 21.5539 2.11817 21.6089L5.11682 23.3419C6.73993 24.1672 7.75765 23.2044 7.75765 22.2416V9.72452C7.75765 9.55946 7.89529 9.39441 8.08785 9.39441H9.4909C9.65595 9.39441 9.821 9.53195 9.821 9.72452V22.2415C9.821 24.4148 8.63803 25.6802 6.57478 25.6802C5.94208 25.6802 5.44692 25.6802 4.04398 24.9924L1.15536 23.3419C0.440138 22.9292 0 22.1589 0 21.3337V8.65178C0 7.82652 0.440138 7.05628 1.15536 6.64355L12.1318 0.288841C12.8196 -0.0962803 13.7548 -0.0962803 14.4426 0.288841L25.419 6.64355C26.1343 7.05618 26.5744 7.82642 26.5744 8.65178V21.3338C26.5744 22.159 26.1343 22.9293 25.419 23.3419L14.4426 29.6968C14.0849 29.8619 13.6723 29.9444 13.2872 29.9444V29.9443ZM16.6709 21.2237C11.8566 21.2237 10.8663 19.023 10.8663 17.1523C10.8663 16.9872 11.0039 16.8222 11.1964 16.8222H12.6269C12.7919 16.8222 12.9296 16.9322 12.9296 17.0972C13.1497 18.5552 13.7824 19.2705 16.6984 19.2705C19.0092 19.2705 19.9996 18.7479 19.9996 17.51C19.9996 16.7947 19.7245 16.272 16.1207 15.9143C13.1221 15.6117 11.2515 14.9515 11.2515 12.5582C11.2515 10.3298 13.122 9.00939 16.2582 9.00939C19.7794 9.00939 21.5126 10.2198 21.7327 12.8607C21.7327 12.9432 21.7052 13.0258 21.6501 13.1083C21.5951 13.1633 21.5126 13.2183 21.4301 13.2183H19.9996C19.862 13.2183 19.7245 13.1083 19.6969 12.9707C19.3668 11.4578 18.514 10.9626 16.2582 10.9626C13.7274 10.9626 13.4247 11.8429 13.4247 12.5031C13.4247 13.301 13.7824 13.5484 17.1935 13.9886C20.5773 14.4287 22.1728 15.0615 22.1728 17.4274C22.1453 19.8482 20.1647 21.2237 16.6709 21.2237V21.2237Z" fill="#539E43"/>
</g>
<defs>
<clipPath id="clip0_88_256">
<rect width="26.5744" height="30" fill="white"/>
</clipPath>
</defs>
</svg>
