<svg width="30" height="30" viewBox="0 0 30 30" fill="none" xmlns="http://www.w3.org/2000/svg">
<path d="M7.29281 17.7403C6.78722 17.7655 6.28855 17.6145 5.88184 17.3131C5.47513 17.0117 5.18555 16.5785 5.0625 16.0875C5.34938 17.4581 6.90094 18.7988 11.7966 19.3959C14.7694 19.8841 17.82 19.3514 20.4516 17.8847C20.4516 17.8847 21.1388 17.5828 20.7262 18.0497C20.7262 18.0497 17.8134 20.7431 12.1012 20.7684C6.38906 20.7938 1.84688 17.9128 1.875 15C1.84781 12.0872 6.38062 9.20157 12.0938 9.2297C17.8069 9.25782 20.7188 11.9484 20.7188 11.9484C21.1313 12.4172 20.4441 12.1134 20.4441 12.1134C19.4278 11.4572 16.4259 10.155 11.7891 10.6022C7.22719 11.0419 5.73938 12.5916 5.24437 13.635C5.06901 13.9989 4.96767 14.3941 4.94625 14.7975C4.97259 14.2 5.23341 13.637 5.67217 13.2305C6.11092 12.824 6.69222 12.6069 7.29 12.6263C7.61813 12.6228 7.94336 12.688 8.24475 12.8178C8.54613 12.9476 8.817 13.1391 9.0399 13.38C9.2628 13.6208 9.4328 13.9056 9.53896 14.2161C9.64511 14.5266 9.68507 14.8559 9.65625 15.1828C9.68491 15.5093 9.64493 15.8383 9.53887 16.1484C9.43281 16.4586 9.26303 16.7431 9.04043 16.9837C8.81783 17.2243 8.54735 17.4157 8.24637 17.5455C7.94539 17.6753 7.62058 17.7407 7.29281 17.7375V17.7403ZM25.7119 16.7334H28.125V17.6119H24.6975V12.7584H25.7119V16.7334ZM21.9881 15H24.0159V17.6166H23.3438L23.2425 17.0081C23.0706 17.2462 22.8424 17.438 22.5785 17.5665C22.3145 17.6951 22.0228 17.7564 21.7294 17.745C21.41 17.7428 21.0947 17.673 20.8042 17.5403C20.5137 17.4075 20.2546 17.2147 20.044 16.9747C19.8333 16.7346 19.6758 16.4527 19.5819 16.1474C19.488 15.8421 19.4598 15.5204 19.4991 15.2034C19.465 14.8744 19.5015 14.5418 19.6059 14.2279C19.7104 13.914 19.8806 13.626 20.1051 13.3829C20.3296 13.1399 20.6032 12.9475 20.9079 12.8185C21.2125 12.6895 21.5411 12.6268 21.8719 12.6347C22.3691 12.5764 22.8694 12.7142 23.2667 13.0188C23.6641 13.3233 23.9271 13.7707 24 14.2659H22.9828C22.9224 14.0324 22.7845 13.8264 22.5917 13.6814C22.3989 13.5365 22.1627 13.4613 21.9216 13.4681C21.1987 13.4681 20.5294 13.9688 20.5294 15.2119C20.5294 16.5366 21.2522 16.8816 21.9412 16.8816C22.2337 16.8774 22.5145 16.7666 22.731 16.57C22.9475 16.3733 23.0847 16.1044 23.1169 15.8138H21.9919V15H21.9881ZM7.29469 13.2188C7.04978 13.2245 6.80883 13.2818 6.58754 13.3869C6.36626 13.492 6.16961 13.6426 6.01039 13.8288C5.85118 14.015 5.73299 14.2326 5.66352 14.4675C5.59405 14.7024 5.57485 14.9494 5.60719 15.1922C5.57485 15.435 5.59405 15.682 5.66352 15.9169C5.73299 16.1518 5.85118 16.3694 6.01039 16.5556C6.16961 16.7418 6.36626 16.8924 6.58754 16.9975C6.80883 17.1026 7.04978 17.1599 7.29469 17.1656C7.5396 17.1599 7.78055 17.1026 8.00183 16.9975C8.22312 16.8924 8.41977 16.7418 8.57898 16.5556C8.73819 16.3694 8.85638 16.1518 8.92586 15.9169C8.99533 15.682 9.01452 15.435 8.98219 15.1922C9.01452 14.9494 8.99533 14.7024 8.92586 14.4675C8.85638 14.2326 8.73819 14.015 8.57898 13.8288C8.41977 13.6426 8.22312 13.492 8.00183 13.3869C7.78055 13.2818 7.5396 13.2245 7.29469 13.2188ZM10.0238 14.5153H10.5159V14.9541H10.5281C10.6213 14.7916 10.7562 14.6569 10.9189 14.5641C11.0816 14.4713 11.2661 14.4237 11.4534 14.4263C11.6506 14.4332 11.8443 14.4798 12.023 14.5633C12.2017 14.6468 12.3618 14.7655 12.4936 14.9122C12.6254 15.059 12.7262 15.2308 12.7901 15.4175C12.854 15.6041 12.8796 15.8017 12.8653 15.9984C12.8844 16.209 12.8608 16.4213 12.7958 16.6225C12.7309 16.8237 12.626 17.0097 12.4874 17.1694C12.3488 17.3291 12.1794 17.4592 11.9893 17.5518C11.7992 17.6444 11.5924 17.6977 11.3813 17.7084C11.2196 17.7163 11.0586 17.6822 10.9141 17.6094C10.7695 17.5367 10.6462 17.4277 10.5563 17.2931H10.5441V18.8438H10.0219V14.5116L10.0238 14.5153ZM11.3438 17.25C11.9138 17.25 12.2991 16.7559 12.2991 16.0744C12.2991 15.6769 12.1388 14.8894 11.3316 14.8894C10.5816 14.8894 10.4944 15.7022 10.4944 16.2075C10.4944 17.0325 11.0109 17.2519 11.3428 17.2519L11.3438 17.25ZM16.0312 16.6388C15.9749 16.9588 15.8001 17.2459 15.5415 17.4427C15.283 17.6396 14.9597 17.7318 14.6363 17.7009C14.4393 17.7016 14.2444 17.6605 14.0644 17.5803C13.8845 17.5002 13.7236 17.3828 13.5923 17.2359C13.461 17.0891 13.3624 16.916 13.3028 16.7283C13.2433 16.5405 13.2242 16.3422 13.2469 16.1466C13.2469 15.1856 13.71 14.4197 14.7356 14.4197C15.6319 14.4197 16.0706 15.1322 16.0706 16.23H13.8009C13.8009 16.8769 14.1037 17.2509 14.7028 17.2509C14.8866 17.2585 15.0673 17.2015 15.2135 17.0898C15.3597 16.9782 15.4623 16.819 15.5034 16.6397H16.0312V16.6388ZM15.4781 15.8138C15.4481 15.3328 15.2466 14.8884 14.6119 14.8884C14.3766 14.9015 14.1556 15.0052 13.9951 15.1777C13.8347 15.3502 13.7473 15.5782 13.7513 15.8138H15.4781ZM18.9591 17.6109H18.4369V15.7041C18.4369 15.1641 18.2822 14.8913 17.7722 14.8913C17.475 14.8913 16.9528 15.0788 16.9528 15.9225V17.61H16.4306V14.5116H16.9228V14.9503H16.935C17.0347 14.791 17.1728 14.6593 17.3366 14.5671C17.5003 14.4749 17.6846 14.4252 17.8725 14.4225C18.0186 14.4059 18.1666 14.4224 18.3055 14.4707C18.4443 14.519 18.5706 14.598 18.6748 14.7017C18.7791 14.8054 18.8586 14.9312 18.9077 15.0698C18.9567 15.2084 18.974 15.3563 18.9581 15.5025V17.6147" fill="#4386B5"/>
</svg>
