<svg width="30" height="30" viewBox="0 0 30 30" fill="none" xmlns="http://www.w3.org/2000/svg">
<g clip-path="url(#clip0_178_8)">
<path d="M29.1827 17.9643C29.0083 17.436 28.5514 17.068 27.9605 16.9797C27.6818 16.9381 27.3627 16.9559 26.9851 17.0337C26.327 17.1695 25.8387 17.2212 25.4823 17.2312C26.8274 14.9602 27.9212 12.3704 28.5508 9.93258C29.569 5.99065 29.0249 4.19485 28.3891 3.38258C26.7065 1.23258 24.2516 0.0775784 21.29 0.0422375C19.7101 0.0229193 18.3232 0.334851 17.5997 0.559169C16.926 0.440306 16.2017 0.373942 15.4417 0.361669C14.0171 0.338942 12.7583 0.64951 11.6827 1.28781C11.0873 1.08644 10.1316 0.802578 9.02797 0.621442C6.43229 0.195306 4.34025 0.527351 2.81002 1.60837C0.957064 2.91724 0.0980865 5.19133 0.25695 8.36747C0.307405 9.37587 0.871496 12.4441 1.75968 15.3538C2.27013 17.0263 2.81445 18.4152 3.37752 19.4822C4.17604 20.9953 5.03047 21.8863 5.98968 22.2063C6.52729 22.3854 7.50411 22.5109 8.5315 21.6552C8.66172 21.8129 8.83547 21.9696 9.06604 22.1152C9.35888 22.2999 9.71695 22.4508 10.0746 22.5402C11.3633 22.8624 12.5705 22.7818 13.6004 22.3302C13.6067 22.5134 13.6116 22.6884 13.6157 22.8395C13.6225 23.0846 13.6293 23.325 13.6383 23.5497C13.6993 25.0695 13.8027 26.2512 14.1091 27.078C14.1259 27.1235 14.1485 27.1928 14.1724 27.2663C14.3252 27.7343 14.5808 28.5177 15.231 29.1312C15.9043 29.7668 16.7188 29.9617 17.4647 29.9617C17.8388 29.9617 18.1957 29.9126 18.5088 29.8455C19.6247 29.6063 20.8921 29.242 21.8089 27.9366C22.6757 26.7025 23.0971 24.8437 23.1733 21.915C23.1832 21.8321 23.1923 21.753 23.201 21.6777L23.2192 21.5229L23.4234 21.5409L23.476 21.5444C24.6126 21.5962 26.0024 21.3552 26.8559 20.9587C27.5304 20.6458 29.6916 19.5047 29.1827 17.9643" fill="black"/>
<path d="M27.2393 18.2639C23.8598 18.9611 23.6274 17.8169 23.6274 17.8169C27.1956 12.5222 28.6873 5.8014 27.4001 4.15651C23.8883 -0.330419 17.8093 1.79163 17.7079 1.84663L17.6752 1.85254C17.0075 1.7139 16.2604 1.6314 15.4205 1.61765C13.8914 1.59265 12.7314 2.01856 11.8512 2.68606C11.8512 2.68606 1.00684 -1.78144 1.51127 8.3047C1.61854 10.4504 4.58672 24.5403 8.12695 20.2845C9.42093 18.7282 10.6713 17.4124 10.6713 17.4124C11.2922 17.8249 12.0356 18.0354 12.8149 17.9598L12.8755 17.9084C12.8566 18.1016 12.8652 18.2906 12.8997 18.5144C11.9876 19.5333 12.2557 19.7122 10.4325 20.0875C8.58763 20.4678 9.67138 21.1446 10.379 21.3216C11.2368 21.5361 13.2214 21.8399 14.5623 19.9628L14.5089 20.177C14.8662 20.4632 15.1171 22.0387 15.075 23.467C15.033 24.8952 15.0049 25.8757 15.2864 26.6416C15.5681 27.4075 15.8487 29.1308 18.2455 28.6173C20.2481 28.1881 21.2859 27.0759 21.4304 25.2207C21.5327 23.9019 21.7647 24.0969 21.7792 22.9177L21.9652 22.3595C22.1797 20.5716 21.9993 19.9948 23.2331 20.2631L23.5331 20.2895C24.441 20.3307 25.6297 20.1433 26.3273 19.8191C27.8293 19.1221 28.7202 17.9581 27.2391 18.2639H27.2393" fill="#336791"/>
<path d="M12.4859 9.26419C12.1814 9.2218 11.9056 9.26101 11.7661 9.36669C11.6877 9.42612 11.6633 9.49499 11.6567 9.54237C11.6392 9.66794 11.7272 9.8068 11.7813 9.8784C11.9342 10.0811 12.1577 10.2204 12.3788 10.2511C12.4108 10.2557 12.4428 10.2577 12.4745 10.2577C12.8432 10.2577 13.1786 9.97055 13.2081 9.75862C13.245 9.49317 12.8597 9.31624 12.4859 9.2643M22.575 9.2726C22.5459 9.06453 22.1757 9.00521 21.8244 9.05408C21.4734 9.10294 21.1332 9.26135 21.1616 9.46987C21.1844 9.63203 21.4772 9.90885 21.8238 9.90885C21.8531 9.90885 21.8827 9.90692 21.9124 9.90271C22.1438 9.87067 22.3136 9.72374 22.3942 9.63908C22.517 9.50999 22.5881 9.36612 22.575 9.2726" fill="white"/>
<path d="M28.3639 18.1846C28.235 17.795 27.8202 17.6696 27.1312 17.8119C25.0851 18.2342 24.3524 17.9417 24.1118 17.7645C25.7022 15.3418 27.0105 12.4132 27.7163 9.68078C28.0506 8.38646 28.2352 7.18442 28.2504 6.20464C28.2671 5.1293 28.0839 4.33908 27.7062 3.85635C26.1832 1.91033 23.948 0.866462 21.2423 0.837826C19.3822 0.816917 17.8106 1.29294 17.5059 1.4268C16.8643 1.26726 16.1649 1.1693 15.4034 1.1568C14.0071 1.13419 12.8 1.46851 11.8007 2.14999C11.3666 1.98839 10.2448 1.60328 8.87286 1.38226C6.50104 1.00044 4.61627 1.28976 3.27127 2.2426C1.66638 3.37964 0.92547 5.41214 1.06899 8.28351C1.11729 9.24953 1.66774 12.2213 2.53638 15.0674C3.67979 18.8133 4.92274 20.9338 6.23047 21.3701C6.38354 21.4211 6.56002 21.4568 6.75467 21.4568C7.23172 21.4568 7.81661 21.2418 8.42513 20.5102C9.16735 19.6198 9.93513 18.751 10.7275 17.905C11.2416 18.1809 11.8064 18.335 12.384 18.3504C12.3851 18.3656 12.3866 18.3807 12.388 18.3957C12.2885 18.5142 12.1912 18.6345 12.0959 18.7565C11.6957 19.2645 11.6124 19.3703 10.3241 19.6356C9.95763 19.7112 8.98433 19.9118 8.97002 20.5941C8.95456 21.3395 10.1206 21.6526 10.2534 21.6858C10.7164 21.8017 11.1624 21.8588 11.5877 21.8588C12.6222 21.8588 13.5325 21.5188 14.26 20.861C14.2376 23.5185 14.3484 26.1371 14.6675 26.935C14.9289 27.5882 15.5673 29.1844 17.5839 29.1843C17.8798 29.1843 18.2055 29.1499 18.5638 29.0731C20.6684 28.6219 21.5824 27.6917 21.9359 25.6409C22.1251 24.5449 22.4498 21.9277 22.6025 20.5238C22.9248 20.6244 23.3397 20.6704 23.7882 20.6703C24.7237 20.6703 25.8031 20.4716 26.48 20.1574C27.2405 19.8042 28.6127 18.9376 28.3639 18.1846V18.1846ZM23.3518 8.69828C23.3449 9.11271 23.2879 9.48896 23.2274 9.88169C23.1623 10.3041 23.095 10.7408 23.0781 11.2709C23.0614 11.7868 23.1258 12.3232 23.1881 12.8419C23.314 13.8896 23.4432 14.9683 22.9431 16.0326C22.86 15.8854 22.786 15.7333 22.7215 15.577C22.6593 15.4263 22.5243 15.1843 22.3374 14.8493C21.6102 13.5452 19.9074 10.4913 20.7791 9.24521C21.0388 8.8743 21.6977 8.49294 23.3518 8.69828V8.69828ZM21.3468 1.67703C23.7712 1.73055 25.6889 2.63749 27.0466 4.37249C28.088 5.70328 26.9413 11.7586 23.6216 16.9826C23.5882 16.9401 23.5547 16.8978 23.5209 16.8557L23.4789 16.8032C24.3367 15.3865 24.169 13.9848 24.0197 12.742C23.9583 12.232 23.9004 11.7503 23.9151 11.2978C23.9304 10.8183 23.9938 10.4069 24.0551 10.0092C24.1305 9.51908 24.2072 9.01192 24.186 8.41408C24.2018 8.35135 24.2082 8.27726 24.1999 8.1893C24.1459 7.61601 23.4914 5.90021 22.1573 4.34726C21.4275 3.49783 20.3633 2.54726 18.9102 1.90612C19.5352 1.77658 20.3899 1.65578 21.3468 1.67703V1.67703ZM7.78115 19.9748C7.1107 20.7809 6.64774 20.6263 6.49547 20.5757C5.50342 20.2448 4.35229 18.1479 3.3374 14.8229C2.45922 11.9459 1.94604 9.05283 1.90536 8.24158C1.77717 5.67589 2.39911 3.88783 3.75399 2.92692C5.95899 1.36328 9.58422 2.29919 11.0409 2.77385C11.02 2.79453 10.9982 2.81385 10.9775 2.83487C8.58706 5.24896 8.64377 9.37351 8.64967 9.62567C8.64945 9.72294 8.65763 9.86067 8.66877 10.0501C8.7099 10.7438 8.78649 12.035 8.58195 13.4971C8.39195 14.8559 8.81081 16.1858 9.73092 17.1459C9.82535 17.2442 9.9246 17.3378 10.0283 17.4263C9.61877 17.865 8.72865 18.835 7.78115 19.9748V19.9748ZM10.3356 16.5665C9.59399 15.7926 9.25717 14.7162 9.41138 13.6131C9.62729 12.0685 9.54763 10.7233 9.50479 10.0006C9.49877 9.89942 9.49342 9.81078 9.49036 9.74089C9.83956 9.43124 11.4579 8.56419 12.6119 8.82862C13.1385 8.94919 13.4594 9.30783 13.5929 9.92464C14.2833 13.1182 13.6842 14.4492 13.2029 15.5188C13.1037 15.7392 13.0099 15.9475 12.9299 16.1629L12.8679 16.3295C12.7108 16.7507 12.5647 17.1423 12.4741 17.5141C11.6857 17.5118 10.9188 17.175 10.3356 16.5663V16.5665ZM10.4566 20.8733C10.2264 20.8158 10.0193 20.7159 9.89786 20.6331C9.99933 20.5853 10.1799 20.5203 10.4931 20.4558C12.0087 20.1438 12.2427 19.9236 12.7539 19.2746C12.871 19.1258 13.0039 18.9571 13.1879 18.7517L13.1881 18.7515C13.4621 18.4446 13.5874 18.4967 13.8147 18.591C13.9989 18.6671 14.1783 18.8981 14.251 19.1521C14.2855 19.2721 14.3241 19.4999 14.1976 19.6771C13.1299 21.1721 11.574 21.1529 10.4566 20.8733V20.8733ZM18.3883 28.2542C16.5342 28.6515 15.8777 27.7054 15.4451 26.624C15.1659 25.9258 15.0287 22.7774 15.126 19.3004C15.1273 19.2542 15.1207 19.2095 15.108 19.1675C15.0966 19.0845 15.0793 19.0024 15.0562 18.9218C14.9114 18.4159 14.5585 17.9927 14.1352 17.8173C13.9671 17.7476 13.6584 17.6198 13.2875 17.7146C13.3666 17.3887 13.5038 17.0207 13.6525 16.6221L13.7149 16.4545C13.7851 16.2656 13.8733 16.0698 13.9665 15.8625C14.4702 14.7434 15.1601 13.2106 14.4114 9.74771C14.1309 8.45067 13.1943 7.81726 11.7746 7.96442C10.9234 8.05249 10.1447 8.39589 9.75627 8.59283C9.67274 8.6351 9.59638 8.67601 9.52502 8.71578C9.63342 7.40896 10.043 4.96669 11.575 3.42146C12.5397 2.44874 13.8243 1.96828 15.3896 1.99419C18.4737 2.04464 20.4514 3.62737 21.5675 4.94635C22.5293 6.08283 23.0501 7.22771 23.258 7.84521C21.6949 7.68624 20.6318 7.99476 20.093 8.76521C18.9206 10.4411 20.7343 13.6938 21.606 15.2571C21.7659 15.5436 21.9039 15.7912 21.9473 15.8965C22.2312 16.5844 22.5987 17.0437 22.8669 17.379C22.9492 17.4817 23.029 17.5813 23.0897 17.6684C22.6163 17.8049 21.7659 18.1202 21.8434 19.6965C21.7809 20.4874 21.3365 24.1903 21.1107 25.4986C20.8126 27.227 20.1766 27.8708 18.3883 28.2543V28.2542ZM26.1274 19.3978C25.6433 19.6225 24.8332 19.791 24.0637 19.8273C23.2137 19.867 22.7809 19.732 22.6791 19.649C22.6314 18.6667 22.9969 18.5641 23.3839 18.4554C23.4447 18.4384 23.504 18.4217 23.5613 18.4017C23.5968 18.4307 23.6358 18.4594 23.6785 18.4876C24.3617 18.9385 25.5802 18.9871 27.3006 18.632L27.3194 18.6283C27.0874 18.8452 26.6904 19.1363 26.1274 19.3978Z" fill="white"/>
</g>
<defs>
<clipPath id="clip0_178_8">
<rect width="29.1" height="30" fill="white" transform="translate(0.200012)"/>
</clipPath>
</defs>
</svg>
