<svg width="30" height="30" viewBox="0 0 30 30" fill="none" xmlns="http://www.w3.org/2000/svg">
<path d="M15 3.75C16.4774 3.75 17.9403 4.04099 19.3052 4.60636C20.6701 5.17172 21.9103 6.00039 22.955 7.04505C23.9996 8.08971 24.8283 9.3299 25.3936 10.6948C25.959 12.0597 26.25 13.5226 26.25 15C26.25 16.4774 25.959 17.9403 25.3936 19.3052C24.8283 20.6701 23.9996 21.9103 22.955 22.955C21.9103 23.9996 20.6701 24.8283 19.3052 25.3936C17.9403 25.959 16.4774 26.25 15 26.25C12.0163 26.25 9.15483 25.0647 7.04505 22.955C4.93526 20.8452 3.75 17.9837 3.75 15C3.75 12.0163 4.93526 9.15483 7.04505 7.04505C9.15483 4.93526 12.0163 3.75 15 3.75ZM15 5.625C12.5136 5.625 10.129 6.61272 8.37087 8.37087C6.61272 10.129 5.625 12.5136 5.625 15C5.625 17.4864 6.61272 19.871 8.37087 21.6291C10.129 23.3873 12.5136 24.375 15 24.375C17.4864 24.375 19.871 23.3873 21.6291 21.6291C23.3873 19.871 24.375 17.4864 24.375 15C24.375 12.5136 23.3873 10.129 21.6291 8.37087C19.871 6.61272 17.4864 5.625 15 5.625ZM15 19.6875C15.373 19.6875 15.7306 19.8357 15.9944 20.0994C16.2581 20.3631 16.4062 20.7208 16.4062 21.0938C16.4062 21.4667 16.2581 21.8244 15.9944 22.0881C15.7306 22.3518 15.373 22.5 15 22.5C14.627 22.5 14.2694 22.3518 14.0056 22.0881C13.7419 21.8244 13.5938 21.4667 13.5938 21.0938C13.5938 20.7208 13.7419 20.3631 14.0056 20.0994C14.2694 19.8357 14.627 19.6875 15 19.6875ZM15 8.4375C15.9946 8.4375 16.9484 8.83259 17.6516 9.53585C18.3549 10.2391 18.75 11.1929 18.75 12.1875C18.75 13.5562 18.3525 14.325 17.3363 15.39L16.8413 15.8962C16.1344 16.6312 15.9375 17.0288 15.9375 17.8125C15.9375 18.0611 15.8387 18.2996 15.6629 18.4754C15.4871 18.6512 15.2486 18.75 15 18.75C14.7514 18.75 14.5129 18.6512 14.3371 18.4754C14.1613 18.2996 14.0625 18.0611 14.0625 17.8125C14.0625 16.4438 14.46 15.675 15.4762 14.61L15.9712 14.1037C16.6781 13.3687 16.875 12.9712 16.875 12.1875C16.875 11.6902 16.6775 11.2133 16.3258 10.8617C15.9742 10.51 15.4973 10.3125 15 10.3125C14.5027 10.3125 14.0258 10.51 13.6742 10.8617C13.3225 11.2133 13.125 11.6902 13.125 12.1875C13.125 12.4361 13.0262 12.6746 12.8504 12.8504C12.6746 13.0262 12.4361 13.125 12.1875 13.125C11.9389 13.125 11.7004 13.0262 11.5246 12.8504C11.3488 12.6746 11.25 12.4361 11.25 12.1875C11.25 11.1929 11.6451 10.2391 12.3483 9.53585C13.0516 8.83259 14.0054 8.4375 15 8.4375Z" fill="#0983FE"/>
</svg>
