<svg width="30" height="30" viewBox="0 0 30 30" fill="none" xmlns="http://www.w3.org/2000/svg">
<path d="M25.3191 25.1588C25.3192 25.5482 25.2426 25.9339 25.0936 26.2938C24.9446 26.6537 24.7262 26.9807 24.4509 27.2561C24.1755 27.5316 23.8486 27.7501 23.4887 27.8992C23.1289 28.0483 22.7432 28.125 22.3538 28.125H4.68094V4.84125C4.68094 4.05471 4.99332 3.30038 5.5494 2.74413C6.10548 2.18787 6.85972 1.87525 7.64625 1.875H25.3191V25.1588Z" fill="#80152A"/>
<path d="M24.8437 24.8803C24.8526 25.2453 24.7873 25.6083 24.6516 25.9473C24.516 26.2863 24.313 26.5942 24.0548 26.8523C23.7967 27.1105 23.4888 27.3136 23.1498 27.4492C22.8108 27.5848 22.4478 27.6501 22.0828 27.6413H5.15625V5.1197C5.1475 4.75471 5.21298 4.39174 5.34871 4.0528C5.48443 3.71387 5.68758 3.40603 5.94583 3.14795C6.20409 2.88988 6.51206 2.68694 6.85109 2.55144C7.19012 2.41594 7.55313 2.35071 7.91812 2.3597H24.8437V24.8803Z" fill="url(#paint0_linear_88_397)"/>
<path d="M9.46781 2.3822L9.53156 8.1197L5.26781 9.54751L9.46781 2.3822V2.3822Z" fill="#8A2034"/>
<path d="M9.46782 2.3822L9.53157 8.1197L15.1584 5.77408L9.46782 2.3822Z" fill="url(#paint1_linear_88_397)"/>
<path d="M7.13812 13.7793L9.53156 8.11963L5.26781 9.54744L7.13812 13.7793Z" fill="#AE2338"/>
<path d="M7.13813 13.7794L9.49969 19.5338L5.22 18.1547L7.13813 13.7794V13.7794Z" fill="url(#paint2_linear_88_397)"/>
<path d="M9.47625 27.6019L9.49969 19.5337L5.22 18.1547L9.47625 27.6019Z" fill="#8A2034"/>
<path d="M9.47625 27.6019L5.22 27.6028V18.1547L9.47625 27.6019Z" fill="#8C2033"/>
<path d="M9.47626 27.6018L9.4997 19.5337L15.1481 21.8578L9.47626 27.6018V27.6018Z" fill="url(#paint3_linear_88_397)"/>
<path d="M20.8012 2.41406L20.865 8.1525L15.1584 5.77406L20.8012 2.41406V2.41406Z" fill="url(#paint4_linear_88_397)"/>
<path d="M20.8013 2.41406L20.865 8.1525L24.8288 9.56344L20.8013 2.41406V2.41406Z" fill="url(#paint5_linear_88_397)"/>
<path d="M23.1909 13.8468L20.865 8.15247L24.8288 9.5634L23.1909 13.8468V13.8468Z" fill="url(#paint6_linear_88_397)"/>
<path d="M23.1909 13.8469L20.8491 19.5094L24.8203 18.091L23.1909 13.8469V13.8469Z" fill="url(#paint7_linear_88_397)"/>
<path d="M20.8969 27.5869L20.8491 19.5094L24.8203 18.0909L20.8969 27.5869V27.5869Z" fill="url(#paint8_linear_88_397)"/>
<path d="M20.8969 27.5869L20.8491 19.5094L15.1519 21.856L20.8969 27.5869Z" fill="url(#paint9_linear_88_397)"/>
<path d="M20.8969 27.5869L9.47719 27.6028L15.1519 21.856L20.8969 27.5869Z" fill="url(#paint10_linear_88_397)"/>
<path d="M15.7369 15.541L17.0213 16.1297L16.8909 15.2147L15.72 14.5847L15.7369 15.541ZM6 18.6066L7.6725 18.7941L8.03719 17.2397L6.43594 16.9585L6 18.6066ZM11.9484 7.84409L10.8516 7.03128L10.0903 8.06253L11.2912 8.81253L11.9484 7.84409ZM15.3009 5.12534L14.5997 4.21034L13.6134 4.79253L14.4338 5.68503L15.3009 5.12534ZM18.915 4.48315L18.6891 3.73315L17.5003 3.6394L17.8453 4.45972L18.915 4.48315ZM22.9341 5.42065L21.9356 4.70722V5.17034L22.8984 5.76565L22.9341 5.42065ZM9.43594 12.0638L8.06906 11.4694L7.605 12.8241L9.01125 13.3472L9.43594 12.0638ZM16.2422 11.4507L15.9984 12.2888L16.8788 13.0978L17.0991 12.3188L16.2422 11.4507ZM21.8597 7.70065L22.5909 7.73628L22.5975 7.3969L21.8363 7.24222L21.8597 7.70065ZM18.8203 4.87503C15.3038 4.70065 9.00844 8.03347 8.10469 21.4041H16.7297C14.7966 16.395 15.0206 12.616 16.35 10.0547C18.2831 6.33003 21.1613 6.08347 23.85 7.65378C23.9438 7.42784 24.0759 7.14284 24.0759 7.14284C23.3967 6.43172 22.5815 5.86449 21.6786 5.47489C20.7757 5.08529 19.8037 4.88129 18.8203 4.87503V4.87503ZM19.0781 7.65003L19.3987 8.4169L19.9931 8.09628L19.7728 7.38847L19.0781 7.65003ZM17.1281 9.3919L17.7844 10.29L18.1884 9.70128L17.6156 8.81253L17.1281 9.3919ZM18.1266 19.8422L17.7188 18.8578L16.2263 18.5766L16.6191 19.7016L18.1266 19.8422Z" fill="#F7DEE1"/>
<path d="M10.2834 7.80843L11.3147 7.37718L10.8516 7.03405L10.2834 7.80843ZM14.43 5.6803L14.7037 5.50312L13.7381 4.92749L14.43 5.6803Z" fill="white"/>
<path d="M6.43313 16.9585L6.04594 18.421L6.96282 18.7163L7.66876 18.7969L8.03344 17.2426L6.43313 16.9585V16.9585ZM8.59219 17.3232C8.48907 17.9076 8.39782 18.5176 8.31844 19.1532L9.49969 19.5338L8.59219 17.3232Z" fill="#D7C4C9"/>
<path d="M6.04594 18.4209L5.99719 18.6065L6.96282 18.7162L6.04594 18.4209V18.4209ZM9.49969 19.5337L8.31844 19.1531C8.22687 19.901 8.1556 20.6513 8.10469 21.4031H9.49407L9.49969 19.5337Z" fill="#C2C3C6"/>
<path d="M9.49406 21.404H14.0447L9.49969 19.5337L9.49406 21.404V21.404Z" fill="#DDC3C8"/>
<path d="M22.2 4.89661L21.9319 4.70911V5.17223L22.5778 5.57161L22.2 4.89661ZM22.9219 6.17911C22.2893 5.72532 21.582 5.3861 20.8322 5.17692L20.8491 6.74161C21.8577 6.77175 22.8419 7.05895 23.7084 7.57598L22.9219 6.17911ZM21.8597 7.70067L22.5909 7.73629L22.5975 7.39692L21.8362 7.24223L21.8597 7.70067Z" fill="url(#paint11_linear_88_397)"/>
<path d="M20.8322 5.17688C20.1752 5 19.5002 4.89872 18.8203 4.87501C17.554 4.84521 16.3039 5.1647 15.2072 5.79845L18.7875 7.2872C19.4149 6.92682 20.1265 6.73889 20.85 6.74251L20.8322 5.17688ZM18.9103 4.47845L18.6844 3.72845L18.6028 3.72095L17.7469 4.23001L17.8406 4.4522L18.9103 4.47845ZM19.3791 7.53282L19.8834 7.74376L19.7719 7.38563L19.3791 7.53282Z" fill="url(#paint12_linear_88_397)"/>
<path d="M9.57938 24.4162V23.7806C9.56417 23.5329 9.4586 23.2994 9.28269 23.1243C9.10679 22.9493 8.87277 22.8449 8.625 22.8309H6.60657V26.6437H7.63782V25.5337L8.47032 26.6437H9.70688L8.73938 25.3593C8.96413 25.3175 9.1686 25.2021 9.32065 25.0314C9.4727 24.8607 9.56371 24.6443 9.57938 24.4162V24.4162ZM8.565 24.6037H7.6275V23.8349H8.565V24.6037ZM12.5672 22.8121H11.6297C11.3738 22.8243 11.1321 22.9335 10.9539 23.1176C10.7757 23.3018 10.6744 23.5469 10.6706 23.8031V26.6249H11.685V25.8806H12.5963V26.6249H13.6275V23.7974C13.6151 23.5272 13.497 23.2727 13.2986 23.0887C13.1003 22.9048 12.8376 22.8061 12.5672 22.814V22.8121ZM12.5981 24.8568H11.6869V23.8349H12.5981V24.8568ZM22.0313 24.1874H21.0394V23.7712H22.7813V22.829H21.0338C20.7684 22.8239 20.5116 22.9232 20.3187 23.1056C20.1258 23.2879 20.0123 23.5388 20.0025 23.804V24.2081C20.011 24.4744 20.1222 24.7271 20.3129 24.9132C20.5036 25.0994 20.7589 25.2045 21.0253 25.2065H21.9469V25.6696H20.0719V26.6324H21.9188C22.1789 26.6434 22.4332 26.5539 22.6292 26.3826C22.8252 26.2112 22.9477 25.9711 22.9716 25.7118V25.2065C22.9795 24.9473 22.8854 24.6954 22.7096 24.5049C22.5338 24.3143 22.2902 24.2003 22.0313 24.1874V24.1874ZM17.8753 22.8206H16.8534V26.6371H19.4063V25.6162H17.8781L17.8753 22.8206ZM14.7253 26.6371H15.75V22.8224H14.7272L14.7253 26.6371Z" fill="white"/>
<defs>
<linearGradient id="paint0_linear_88_397" x1="5.15718" y1="15" x2="24.8437" y2="15" gradientUnits="userSpaceOnUse">
<stop offset="0.08" stop-color="#AA2237"/>
<stop offset="0.982" stop-color="#B4313D"/>
</linearGradient>
<linearGradient id="paint1_linear_88_397" x1="9.46782" y1="5.25095" x2="15.1584" y2="5.25095" gradientUnits="userSpaceOnUse">
<stop offset="0.037" stop-color="#B83A41"/>
<stop offset="0.896" stop-color="#BF4A50"/>
</linearGradient>
<linearGradient id="paint2_linear_88_397" x1="7.36031" y1="19.5338" x2="7.36031" y2="13.7794" gradientUnits="userSpaceOnUse">
<stop offset="0.037" stop-color="#A92237"/>
<stop offset="0.939" stop-color="#972235"/>
</linearGradient>
<linearGradient id="paint3_linear_88_397" x1="12.3122" y1="27.6018" x2="12.3122" y2="19.5337" gradientUnits="userSpaceOnUse">
<stop offset="0.037" stop-color="#BC4245"/>
<stop offset="0.939" stop-color="#A42136"/>
</linearGradient>
<linearGradient id="paint4_linear_88_397" x1="18.0112" y1="8.1525" x2="18.0112" y2="2.41406" gradientUnits="userSpaceOnUse">
<stop offset="0.037" stop-color="#CC5057"/>
<stop offset="0.896" stop-color="#B73840"/>
</linearGradient>
<linearGradient id="paint5_linear_88_397" x1="20.415" y1="7.37438" x2="22.8525" y2="5.96719" gradientUnits="userSpaceOnUse">
<stop offset="0.08" stop-color="#D4575F"/>
<stop offset="0.945" stop-color="#B63540"/>
</linearGradient>
<linearGradient id="paint6_linear_88_397" x1="20.865" y1="10.9997" x2="24.8288" y2="10.9997" gradientUnits="userSpaceOnUse">
<stop stop-color="#C04B51"/>
<stop offset="1" stop-color="#B83A41"/>
</linearGradient>
<linearGradient id="paint7_linear_88_397" x1="20.8491" y1="16.6782" x2="24.8203" y2="16.6782" gradientUnits="userSpaceOnUse">
<stop stop-color="#BA4044"/>
<stop offset="1" stop-color="#B4303C"/>
</linearGradient>
<linearGradient id="paint8_linear_88_397" x1="20.0147" y1="21.8034" x2="23.0653" y2="22.9144" gradientUnits="userSpaceOnUse">
<stop stop-color="#972136"/>
<stop offset="1" stop-color="#9F2236"/>
</linearGradient>
<linearGradient id="paint9_linear_88_397" x1="17.4019" y1="19.9688" x2="22.5966" y2="26.16" gradientUnits="userSpaceOnUse">
<stop offset="0.037" stop-color="#B22C3A"/>
<stop offset="0.939" stop-color="#C04D53"/>
</linearGradient>
<linearGradient id="paint10_linear_88_397" x1="15.1866" y1="27.6028" x2="15.1866" y2="21.856" gradientUnits="userSpaceOnUse">
<stop offset="0.037" stop-color="#B22C3A"/>
<stop offset="0.939" stop-color="#9B2135"/>
</linearGradient>
<linearGradient id="paint11_linear_88_397" x1="20.8322" y1="6.22036" x2="23.7094" y2="6.22036" gradientUnits="userSpaceOnUse">
<stop offset="0.037" stop-color="white"/>
<stop offset="0.742" stop-color="#F4E6D9"/>
</linearGradient>
<linearGradient id="paint12_linear_88_397" x1="16.0894" y1="4.26751" x2="20.7309" y2="6.94782" gradientUnits="userSpaceOnUse">
<stop offset="0.037" stop-color="white"/>
<stop offset="0.896" stop-color="#F4E6D9"/>
</linearGradient>
</defs>
</svg>
