<svg width="30" height="30" viewBox="0 0 30 30" fill="none" xmlns="http://www.w3.org/2000/svg">
<path d="M15 17.3193C16.2944 17.3193 17.3438 16.27 17.3438 14.9756C17.3438 13.6812 16.2944 12.6318 15 12.6318C13.7056 12.6318 12.6562 13.6812 12.6562 14.9756C12.6562 16.27 13.7056 17.3193 15 17.3193Z" fill="#007ACC"/>
<path d="M15 20.3493C12.1829 20.4175 9.37293 20.0377 6.675 19.2243C5.42871 18.8292 4.26631 18.2069 3.24656 17.3887C2.85743 17.1092 2.53338 16.7488 2.29663 16.3323C2.05989 15.9157 1.91605 15.4529 1.875 14.9756C1.875 13.4259 3.5775 11.9071 6.42937 10.9134C9.19944 10.0328 12.0937 9.60608 15 9.64963C17.8675 9.60957 20.723 10.0286 23.4581 10.8909C24.6584 11.2735 25.7814 11.8658 26.775 12.6403C27.1575 12.9067 27.4767 13.2541 27.71 13.6576C27.9433 14.0612 28.085 14.5111 28.125 14.9756C28.125 16.5862 26.2219 18.2184 23.1563 19.2328C20.5106 20.0197 17.7598 20.3962 15 20.3493V20.3493ZM15 10.7709C12.2195 10.7337 9.45077 11.1394 6.79781 11.9728C4.17281 12.8887 2.99625 14.1412 2.99625 14.9728C2.99625 15.8428 4.26094 17.2106 7.03781 18.1603C9.61882 18.9345 12.3062 19.2949 15 19.2281C17.6404 19.2753 20.2724 18.918 22.8047 18.1687C25.6875 17.2134 27 15.8437 27 14.9756C26.9527 14.6777 26.8441 14.3928 26.6812 14.139C26.5182 13.8851 26.3043 13.6679 26.0531 13.5009C25.1641 12.8138 24.161 12.2889 23.0897 11.9503C20.4732 11.1288 17.7422 10.7306 15 10.7709V10.7709Z" fill="#007ACC"/>
<path d="M9.675 26.6653C9.23766 26.6754 8.80547 26.5692 8.4225 26.3578C7.08 25.5834 6.615 23.3503 7.17844 20.3831C7.79967 17.5435 8.87607 14.8231 10.3659 12.3272C11.7635 9.82323 13.5527 7.55899 15.6656 5.62032C16.5967 4.7716 17.6708 4.09458 18.8381 3.62063C19.2603 3.42276 19.7209 3.32019 20.1872 3.32019C20.6535 3.32019 21.114 3.42276 21.5363 3.62063C22.9322 4.42501 23.3944 6.88876 22.7428 10.0509C22.1024 12.7365 21.054 15.3079 19.6341 17.6756C18.2857 20.15 16.5528 22.3946 14.5003 24.3253C13.5354 25.2073 12.4156 25.9031 11.1975 26.3775C10.7098 26.5585 10.1951 26.6558 9.675 26.6653V26.6653ZM11.3372 12.8841C9.91603 15.2741 8.88437 17.875 8.28094 20.5894C7.7625 23.3222 8.26031 24.9656 8.98406 25.3838C9.73406 25.8178 11.5547 25.4063 13.7653 23.475C15.7247 21.6253 17.3787 19.4768 18.6656 17.1094C20.0259 14.8458 21.0316 12.3873 21.6478 9.81938C22.2609 6.84282 21.7313 5.02032 20.9794 4.58719C20.6976 4.47922 20.3964 4.43088 20.095 4.44525C19.7936 4.45961 19.4984 4.53635 19.2281 4.67063C18.1891 5.09939 17.2338 5.7081 16.4063 6.46876C14.3875 8.32574 12.6785 10.4934 11.3438 12.8897L11.3372 12.8841Z" fill="#007ACC"/>
<path d="M20.3222 26.6775C19.0519 26.6775 17.4384 25.9087 15.7584 24.464C13.6085 22.5077 11.789 20.2166 10.3706 17.6794C8.89943 15.2178 7.83156 12.5367 7.2075 9.73779C6.93685 8.50637 6.8867 7.23672 7.05937 5.98779C7.09929 5.52449 7.24037 5.07558 7.47265 4.67273C7.70494 4.26987 8.02277 3.92289 8.40375 3.65623C9.79781 2.84904 12.1631 3.67873 14.5772 5.82186C16.584 7.71765 18.2882 9.91001 19.6303 12.3225C21.1006 14.7266 22.1797 17.3489 22.8272 20.0915C23.1095 21.3681 23.153 22.686 22.9556 23.9784C22.9087 24.455 22.7592 24.9159 22.5174 25.3293C22.2757 25.7428 21.9473 26.0991 21.555 26.3737C21.1783 26.5825 20.7528 26.6874 20.3222 26.6775V26.6775ZM11.3409 17.115C12.7016 19.5398 14.4396 21.7325 16.4897 23.6109C18.5981 25.425 20.2706 25.815 20.9897 25.3922C21.7397 24.9562 22.2928 23.1769 21.7228 20.2978C21.0983 17.6793 20.0633 15.1761 18.6562 12.8812C17.3755 10.5723 15.7488 8.47297 13.8328 6.65623C11.5603 4.63873 9.71718 4.18779 8.96625 4.62279C8.73219 4.81299 8.54012 5.04966 8.40216 5.31784C8.26419 5.58603 8.18333 5.8799 8.16468 6.18092C8.01563 7.29475 8.06418 8.42614 8.30812 9.5231C8.90841 12.1998 9.93257 14.7634 11.3419 17.1169L11.3409 17.115Z" fill="#007ACC"/>
</svg>
