<svg width="30" height="30" viewBox="0 0 30 30" fill="none" xmlns="http://www.w3.org/2000/svg">
<path d="M16.8625 6.84998C18.2375 6.84998 19.3625 5.72498 19.3625 4.34998C19.3625 2.97498 18.2375 1.84998 16.8625 1.84998C15.4875 1.84998 14.3625 2.97498 14.3625 4.34998C14.3625 5.72498 15.4875 6.84998 16.8625 6.84998ZM12.9 21.85L13.6125 18.725L16.2375 21.225V27.475C16.2375 28.1625 16.8 28.725 17.4875 28.725C18.175 28.725 18.7375 28.1625 18.7375 27.475V20.425C18.7375 19.7375 18.4625 19.0875 17.9625 18.6125L16.1125 16.85L16.8625 13.1C18.2711 14.7104 20.1995 15.7763 22.3125 16.1125C23.0625 16.225 23.7375 15.625 23.7375 14.8625C23.7375 14.25 23.2875 13.7375 22.675 13.6375C20.775 13.325 19.2 12.2 18.3625 10.725L17.1125 8.72498C16.6125 7.97498 15.8625 7.47498 14.9875 7.47498C14.6125 7.47498 14.3625 7.59998 13.9875 7.59998L9.01249 9.69998C8.55963 9.89354 8.17364 10.2159 7.90251 10.6271C7.63138 11.0382 7.48706 11.52 7.48749 12.0125V14.975C7.48749 15.6625 8.04999 16.225 8.73749 16.225C9.42499 16.225 9.98749 15.6625 9.98749 14.975V11.975L12.2375 11.1L10.2375 21.225L5.33749 20.225C4.66249 20.0875 3.99999 20.525 3.86249 21.2V21.25C3.72499 21.925 4.16249 22.5875 4.83749 22.725L9.97499 23.75C10.614 23.8768 11.2772 23.7492 11.8236 23.3943C12.3699 23.0395 12.7561 22.4853 12.9 21.85Z" fill="#0983FE"/>
</svg>
