<svg width="30" height="27" viewBox="0 0 30 27" fill="none" xmlns="http://www.w3.org/2000/svg">
<g clip-path="url(#clip0_88_131)">
<path d="M19.9792 16.6667C16.6781 16.6667 17.162 14.6005 15.0141 14.5823C12.7984 14.6014 13.3573 16.6667 10.0187 16.6667C7.97343 16.6667 7.11666 15.7078 6.77864 15.3734L14.0911 9.32656C13.9197 9.23859 12.4422 8.37865 10.1719 8.37865C9.51718 8.37865 8.86041 8.45141 8.21718 8.59792L6.20728 9.05854C6.08433 9.08712 5.95852 9.10157 5.83229 9.10161C5.00364 9.10161 4.1677 8.43443 4.1677 7.43286C4.1677 6.67349 4.6901 5.98651 5.46145 5.80995L7.47135 5.34932C8.35658 5.14707 9.26175 5.0451 10.1698 5.04531C16.425 5.04531 19.4094 9.51771 19.4458 9.62969L20.6719 11.1094C21.7656 12.5677 22.3229 14.2604 22.4479 16.026C21.7969 16.4271 20.9219 16.6667 19.9792 16.6667ZM-7.62939e-06 20.6771C-7.62939e-06 19.8885 0.563534 19.188 1.36718 19.0406C3.89426 18.5777 3.73697 17.5052 4.99218 17.5052C6.29531 17.5052 6.61666 19.1609 10.0016 19.1609C12.5323 19.1609 13.7891 18.012 13.8234 17.9828C14.1433 17.6621 14.5661 17.5043 14.9911 17.5043C16.2802 17.5043 16.6365 19.161 20.0016 19.161C22.5323 19.161 23.7875 18.0136 23.825 17.9845C24.144 17.6638 24.5698 17.503 24.9948 17.503C25.4152 17.503 25.8344 17.6606 26.1604 17.9666C27.6713 19.3337 30.0016 18.6197 30.0016 20.6791C30.0016 21.5166 29.3365 22.3494 28.35 22.3494C27.8411 22.3494 26.2849 21.9671 25.0031 21.2119C23.9844 21.8125 22.3229 22.4531 20 22.4531C17.6771 22.4531 16.0156 21.7698 15 21.1687C13.9828 21.7693 12.3193 22.4495 9.99999 22.4495C7.6776 22.4495 6.0125 21.7677 4.99687 21.1672C3.70989 21.926 2.14583 22.3042 1.65104 22.3042C0.66666 22.349 -7.62939e-06 21.526 -7.62939e-06 20.6771ZM25.0469 11.6667C23.2057 11.6667 21.7135 10.1745 21.7135 8.33333C21.7135 6.49219 23.2057 5 25.0469 5C26.888 5 28.3802 6.49219 28.3802 8.33333C28.3802 10.1719 26.8411 11.6667 25.0469 11.6667Z" fill="#0983FE"/>
</g>
<defs>
<clipPath id="clip0_88_131">
<rect width="30" height="26.6667" fill="white" transform="matrix(-1 0 0 1 30 0)"/>
</clipPath>
</defs>
</svg>
