<svg width="30" height="30" viewBox="0 0 30 30" fill="none" xmlns="http://www.w3.org/2000/svg">
<path d="M8.4375 12.8437C9.3125 9.34375 11.5 7.59375 15 7.59375C20.25 7.59375 20.9063 11.5312 23.5313 12.1875C25.2813 12.625 26.8125 11.9687 28.125 10.2187C27.25 13.7187 25.0625 15.4687 21.5625 15.4687C16.3125 15.4687 15.6562 11.5312 13.0312 10.875C11.2812 10.4375 9.75 11.0937 8.4375 12.8437ZM1.875 20.7187C2.75 17.2187 4.9375 15.4687 8.4375 15.4687C13.6875 15.4687 14.3438 19.4062 16.9688 20.0625C18.7188 20.5 20.25 19.8437 21.5625 18.0937C20.6875 21.5937 18.5 23.3437 15 23.3437C9.75 23.3437 9.09375 19.4062 6.46875 18.75C4.71875 18.3125 3.1875 18.9687 1.875 20.7187Z" fill="#44A8B3"/>
</svg>
