<svg width="30" height="30" viewBox="0 0 30 30" fill="none" xmlns="http://www.w3.org/2000/svg">
<path d="M23.75 13.125L26.875 18.75L23.75 19.375V23.125H21.875L18.125 22.5L17.5 26.875H8.125L6.875 20.3869C4.95 18.5644 3.75 15.985 3.75 13.125C3.75 7.60188 8.22688 3.125 13.75 3.125C19.2731 3.125 23.75 7.60188 23.75 13.125Z" stroke="#0983FE" stroke-width="4" stroke-linecap="round" stroke-linejoin="round"/>
<path d="M10.625 11.875C10.625 11.2569 10.8083 10.6527 11.1517 10.1388C11.495 9.62494 11.9831 9.2244 12.5541 8.98788C13.1251 8.75135 13.7535 8.68947 14.3597 8.81005C14.9658 8.93063 15.5227 9.22825 15.9597 9.66529C16.3967 10.1023 16.6944 10.6592 16.815 11.2653C16.9355 11.8715 16.8736 12.4999 16.6371 13.0709C16.4006 13.6419 16.0001 14.13 15.4862 14.4733C14.9723 14.8167 14.3681 15 13.75 15V16.875M13.75 20.625V21.25" stroke="#0983FE" stroke-width="4" stroke-linecap="round" stroke-linejoin="round"/>
</svg>
