<svg width="24" height="25" viewBox="0 0 24 25" fill="none" xmlns="http://www.w3.org/2000/svg">
<path d="M12 0.378601C5.58014 0.378601 0.375 5.63521 0.375 12.1143C0.375 18.5972 5.58014 23.85 12 23.85C18.4199 23.85 23.625 18.5972 23.625 12.1143C23.625 5.63521 18.4199 0.378601 12 0.378601ZM12 5.58396C13.0873 5.58396 13.9688 6.47379 13.9688 7.57146C13.9688 8.66913 13.0873 9.55896 12 9.55896C10.9127 9.55896 10.0312 8.66913 10.0312 7.57146C10.0312 6.47379 10.9127 5.58396 12 5.58396ZM14.625 17.6036C14.625 17.9172 14.3731 18.1715 14.0625 18.1715H9.9375C9.62686 18.1715 9.375 17.9172 9.375 17.6036V16.4679C9.375 16.1543 9.62686 15.9 9.9375 15.9H10.5V12.8715H9.9375C9.62686 12.8715 9.375 12.6172 9.375 12.3036V11.1679C9.375 10.8543 9.62686 10.6 9.9375 10.6H12.9375C13.2481 10.6 13.5 10.8543 13.5 11.1679V15.9H14.0625C14.3731 15.9 14.625 16.1543 14.625 16.4679V17.6036Z" fill="white"/>
</svg>
